<?xml version="1.0" encoding="UTF-8" standalone="no"?>
<!-- Created with Inkscape (http://www.inkscape.org/) -->

<svg
   width="864.11481"
   height="308.22675"
   viewBox="0 0 228.63038 81.551659"
   version="1.1"
   id="svg5"
   xml:space="preserve"
   xmlns:xlink="http://www.w3.org/1999/xlink"
   xmlns="http://www.w3.org/2000/svg"
   xmlns:svg="http://www.w3.org/2000/svg"><defs
     id="defs2"><linearGradient
       id="linearGradient26"><stop
         style="stop-color:#163dff;stop-opacity:1;"
         offset="0"
         id="stop24" /><stop
         style="stop-color:#00d4ff;stop-opacity:1;"
         offset="0.83214122"
         id="stop25" /></linearGradient><linearGradient
       id="linearGradient43"><stop
         style="stop-color:#42c4f0;stop-opacity:1;"
         offset="0"
         id="stop41" /><stop
         style="stop-color:#2b6cee;stop-opacity:1;"
         offset="0.51400799"
         id="stop42" /><stop
         style="stop-color:#2beeca;stop-opacity:1;"
         offset="1"
         id="stop43" /></linearGradient><style
       id="style6568">.cls-1{fill:none;}.cls-2{clip-path:url(#clip-path);}</style><style
       id="style6568-5">.cls-1{fill:none;}.cls-2{clip-path:url(#clip-path);}</style><style
       id="style6568-9">.cls-1{fill:none;}.cls-2{clip-path:url(#clip-path);}</style><style
       id="style22571">.cls-1{fill:#84d0f7;}.cls-2{fill:#aa392d;}.cls-3{fill:#7c211a;}.cls-4{fill:#e59973;}.cls-5{fill:#2d2d2d;}.cls-6{opacity:0.2;}.cls-7{opacity:0.3;}</style><style
       id="style23309">
      .cls-1 {
        fill: none;
      }
    </style><style
       id="style6568-7">.cls-1{fill:none;}.cls-2{clip-path:url(#clip-path);}</style><style
       id="style6568-5-5">.cls-1{fill:none;}.cls-2{clip-path:url(#clip-path);}</style><style
       id="style6568-9-3">.cls-1{fill:none;}.cls-2{clip-path:url(#clip-path);}</style><style
       id="style22571-5">.cls-1{fill:#84d0f7;}.cls-2{fill:#aa392d;}.cls-3{fill:#7c211a;}.cls-4{fill:#e59973;}.cls-5{fill:#2d2d2d;}.cls-6{opacity:0.2;}.cls-7{opacity:0.3;}</style><style
       id="style23309-6">
      .cls-1 {
        fill: none;
      }
    </style><style
       id="style1-9">
      .cls-1 {
        fill: none;
      }
    </style><linearGradient
       xlink:href="#linearGradient43"
       id="linearGradient85"
       gradientUnits="userSpaceOnUse"
       gradientTransform="matrix(0.6451905,0,0,0.6451905,399.18551,446.85447)"
       x1="211.29193"
       y1="762.6239"
       x2="301.67172"
       y2="672.24414" /><filter
       style="color-interpolation-filters:sRGB"
       id="filter99"
       x="-0.46642393"
       y="-0.46642393"
       width="1.9553264"
       height="1.9553264"><feFlood
         result="flood"
         in="SourceGraphic"
         flood-opacity="0.301961"
         flood-color="rgb(0,0,0)"
         id="feFlood98" /><feGaussianBlur
         result="blur"
         in="SourceGraphic"
         stdDeviation="3.6457234"
         id="feGaussianBlur98" /><feOffset
         result="offset"
         in="blur"
         dx="1.000000"
         dy="1.000000"
         id="feOffset98" /><feComposite
         result="comp1"
         operator="in"
         in="flood"
         in2="offset"
         id="feComposite98" /><feComposite
         result="fbSourceGraphic"
         operator="over"
         in="SourceGraphic"
         in2="comp1"
         id="feComposite99" /><feColorMatrix
         result="fbSourceGraphicAlpha"
         in="fbSourceGraphic"
         values="0 0 0 -1 0 0 0 0 -1 0 0 0 0 -1 0 0 0 0 1 0"
         id="feColorMatrix134" /><feFlood
         id="feFlood134"
         result="flood"
         in="fbSourceGraphic"
         flood-opacity="0.403922"
         flood-color="rgb(102,153,204)" /><feGaussianBlur
         id="feGaussianBlur134"
         result="blur"
         in="fbSourceGraphic"
         stdDeviation="5.000000" /><feOffset
         id="feOffset134"
         result="offset"
         in="blur"
         dx="0.000000"
         dy="0.000000" /><feComposite
         id="feComposite135"
         result="comp1"
         operator="in"
         in="flood"
         in2="offset" /><feComposite
         id="feComposite136"
         result="comp2"
         operator="over"
         in="fbSourceGraphic"
         in2="comp1" /></filter><style
       id="style6568-3">.cls-1{fill:none;}.cls-2{clip-path:url(#clip-path);}</style><style
       id="style6568-5-7">.cls-1{fill:none;}.cls-2{clip-path:url(#clip-path);}</style><style
       id="style6568-9-5">.cls-1{fill:none;}.cls-2{clip-path:url(#clip-path);}</style><style
       id="style22571-9">.cls-1{fill:#84d0f7;}.cls-2{fill:#aa392d;}.cls-3{fill:#7c211a;}.cls-4{fill:#e59973;}.cls-5{fill:#2d2d2d;}.cls-6{opacity:0.2;}.cls-7{opacity:0.3;}</style><style
       id="style23309-2">
      .cls-1 {
        fill: none;
      }
    </style><style
       id="style6568-7-2">.cls-1{fill:none;}.cls-2{clip-path:url(#clip-path);}</style><style
       id="style6568-5-5-8">.cls-1{fill:none;}.cls-2{clip-path:url(#clip-path);}</style><style
       id="style6568-9-3-9">.cls-1{fill:none;}.cls-2{clip-path:url(#clip-path);}</style><style
       id="style22571-5-7">.cls-1{fill:#84d0f7;}.cls-2{fill:#aa392d;}.cls-3{fill:#7c211a;}.cls-4{fill:#e59973;}.cls-5{fill:#2d2d2d;}.cls-6{opacity:0.2;}.cls-7{opacity:0.3;}</style><style
       id="style23309-6-3">
      .cls-1 {
        fill: none;
      }
    </style><style
       id="style1-9-6">
      .cls-1 {
        fill: none;
      }
    </style><linearGradient
       xlink:href="#linearGradient26"
       id="linearGradient33"
       gradientUnits="userSpaceOnUse"
       gradientTransform="matrix(1.0206594,0,0,1.0206594,303.72309,232.2909)"
       x1="254.04842"
       y1="658.18964"
       x2="254.27238"
       y2="642.43604" /></defs><g
     id="layer1"
     transform="translate(-522.59448,-869.00239)"><rect
       style="fill:url(#linearGradient85);fill-opacity:1;stroke-width:4.14699"
       id="rect75"
       width="66.145836"
       height="66.145836"
       x="530.70093"
       y="875.7691"
       rx="13.229166"
       ry="13.229166" /><path
       fill="#ffcc4d"
       d="m 586.09199,909.35506 c 0,12.28455 -9.95888,22.24343 -22.24344,22.24343 -12.28454,0 -22.24342,-9.95888 -22.24342,-22.24343 0,-12.28455 9.95888,-22.24343 22.24342,-22.24343 12.28456,0 22.24344,9.95888 22.24344,22.24343"
       id="path75"
       style="fill:#ffffff;fill-opacity:0.696741;stroke:#ffffff;stroke-width:0;stroke-miterlimit:4;stroke-dasharray:none;stroke-opacity:1;filter:url(#filter99)" /><path
       fill="#664500"
       d="m 563.84855,913.0623 c -4.4771,0 -7.44783,-0.52149 -11.1217,-1.23574 -0.83908,-0.16189 -2.47149,0 -2.47149,2.47147 0,4.94299 5.67825,11.12172 13.59319,11.12172 7.91372,0 13.59321,-6.17873 13.59321,-11.12172 0,-2.47147 -1.63242,-2.63459 -2.4715,-2.47147 -3.67386,0.71425 -6.6446,1.23574 -11.12171,1.23574 z"
       id="path76"
       style="fill:#1a324d;fill-opacity:0.5;stroke:none;stroke-width:0;stroke-miterlimit:4;stroke-dasharray:none" /><path
       fill="#ffffff"
       d="m 553.55342,914.50351 c 1.42228,0.3514 4.79958,1.03028 10.29513,1.03028 5.35558,0 8.77694,-0.64473 10.26412,-1.00281 0.48313,-0.12948 0.81514,0.14771 0.74394,0.56198 -0.28484,1.65706 -2.09147,5.60583 -10.8424,5.60583 -8.95957,0 -10.73171,-3.98997 -11.16079,-5.59138 -0.1162,-0.43366 0.29374,-0.71275 0.7,-0.6039 z"
       id="path77"
       style="fill:#ffffff;fill-opacity:0.9;stroke-width:0;stroke-miterlimit:4;stroke-dasharray:none" /><g
       id="g4-9"
       transform="translate(310.29406,316.92556)"><path
         id="path1472-9-0-7"
         style="font-weight:300;font-size:10.5833px;line-height:1.25;-inkscape-font-specification:'Rubik Light';fill:#101218;fill-opacity:1;stroke-width:0.193314"
         d="m 308.64213,572.78692 c -0.75318,0 -1.57534,0.27928 -2.15901,0.85642 -0.58369,0.57734 -0.86508,1.38941 -0.86508,2.1343 v 5.0827 c 0,1.29496 0.0455,1.3977 -2.01409,1.3977 -0.71854,0 -1.5538,0.24728 -2.15802,0.84474 -0.60424,0.59764 -0.85521,1.42327 -0.85521,2.13396 v 0.69901 c 0,0.71053 0.25099,1.53616 0.85521,2.1338 0.60425,0.59763 1.4395,0.84627 2.15802,0.84627 1.43835,0 2.01409,0.55446 2.01409,1.69795 v 11.11795 c 0,1.722 0.22459,3.32043 0.69503,4.79361 0.51077,1.59963 1.474,2.98091 2.8077,3.9482 1.42484,1.03345 3.23731,1.46691 5.25849,1.46691 h 2.97185 c 0.75319,0 1.57531,-0.27825 2.159,-0.85558 0.60425,-0.59763 0.85423,-1.42307 0.85423,-2.13378 v -0.6936 c 2e-5,-0.71069 -0.24998,-1.53683 -0.85423,-2.1343 -0.5837,-0.57732 -1.40583,-0.85574 -2.159,-0.85574 h -2.7239 c -0.94464,0 -1.28172,-0.25608 -1.66115,-0.90618 -0.32296,-0.57801 -0.45646,-1.29547 -0.45646,-2.8323 v -11.5416 c 0,-0.60847 0.65345,-1.07154 1.0795,-1.07154 h 3.26316 c 0.71854,0 1.55329,-0.24864 2.15753,-0.84627 0.60427,-0.59764 0.85572,-1.42327 0.85572,-2.1338 v -0.69901 c 0,-0.71069 -0.2515,-1.53632 -0.85572,-2.13396 -0.60424,-0.59746 -1.43899,-0.84474 -2.15753,-0.84474 h -2.681 c -1.35771,0 -1.66166,-0.48999 -1.66166,-2.06998 v -4.41042 c 0,-0.74489 -0.28099,-1.55696 -0.86458,-2.1343 -0.5678,-0.5614 -1.38943,-0.85642 -2.14867,-0.85642 z m 66.90112,0 c -0.75932,-1.7e-4 -1.58041,0.29502 -2.14817,0.85642 -0.58367,0.57734 -0.8651,1.38941 -0.86509,2.1343 v 33.17344 c -10e-6,0.74489 0.28142,1.55664 0.86509,2.13378 0.56778,0.5616 1.38893,0.85558 2.14817,0.85558 h 0.85422 c 0.7532,0 1.57435,-0.27825 2.15803,-0.85558 0.58369,-0.57714 0.86606,-1.38889 0.86606,-2.13378 v -6.2458 c 0,-0.20717 0.25564,-0.22054 0.52053,0.0406 l 8.94608,7.87032 c 0.54461,0.47881 1.13539,0.88486 1.70058,1.13518 0.49115,0.21766 1.11951,0.47493 1.92539,0.41788 0.78823,-0.0559 1.89746,-0.33444 2.6125,-1.03498 0.56034,-0.54906 0.8651,-1.3586 0.86508,-2.08741 2e-5,-1.20848 -0.7059,-1.87195 -1.26731,-2.38445 -0.0104,-0.0169 -0.0205,-0.0169 -0.031,-0.0203 l -0.005,-0.0169 -11.75972,-10.37255 c -0.34602,-0.34224 -0.32384,-0.49338 0.0267,-0.84001 l 10.25531,-7.70191 c 0.42024,-0.31548 0.88911,-0.77924 1.18399,-1.31967 v 0 0 0 0 0 0 -10e-4 0 c 0.5779,-1.13553 0.23335,-2.44284 -0.56192,-3.24951 v 0 0 0 0 c -0.49942,-0.49168 -1.15779,-0.99082 -1.94607,-1.12622 -1.27529,-0.21885 -2.14029,0.10664 -2.92602,0.55583 -0.53051,0.3028 -1.02414,0.66077 -1.39054,0.94191 v 0 l -7.33421,5.49601 c -2e-5,0 -2e-5,0 0,0.0169 -0.64671,0.4668 -0.81433,0.0863 -0.81433,-0.3666 v -12.86263 c 0,-0.74488 -0.28246,-1.55713 -0.86605,-2.13429 -0.58371,-0.57733 -1.40494,-0.85643 -2.15802,-0.85659 z m 27.20195,0.26556 c -0.6326,0.0187 -1.3295,0.33123 -1.78088,0.8175 -0.46843,0.49033 -0.70234,1.17039 -0.70234,1.75127 v 1.81221 c 2e-5,0.59814 0.22162,1.31019 0.71965,1.80272 0.49796,0.49253 1.21951,0.71375 1.82415,0.71375 h 1.83281 c 0.58731,0 1.27354,-0.23205 1.76949,-0.69531 0.50746,-0.46071 0.82759,-1.17969 0.82759,-1.82116 v -1.81221 c 0,-0.62488 -0.31626,-1.3146 -0.80027,-1.777 -0.46757,-0.47882 -1.16497,-0.79177 -1.79681,-0.79177 h -1.83281 c -0.0202,0 -0.0402,-6.8e-4 -0.0605,0 z m 0.58933,9.20556 c -0.71855,0 -1.5538,0.24728 -2.15802,0.84474 -0.60427,0.59764 -0.85572,1.42327 -0.85572,2.13396 v 23.71434 c 0,0.71071 0.25142,1.53615 0.85572,2.13378 0.58368,0.57733 1.40485,0.85558 2.15802,0.85558 h 0.85522 c 0.75318,0 1.57433,-0.27825 2.15801,-0.85558 0.6034,-0.59679 0.85966,-1.42122 0.85966,-2.13378 v -23.71434 c 0,-0.71256 -0.2563,-1.53717 -0.85966,-2.13396 -0.60424,-0.59746 -1.43948,-0.84474 -2.15801,-0.84474 z m -75.57268,-1.24402 c -1.15872,0.0169 -1.91158,0.0372 -2.55432,0.70629 -0.544,0.56819 -0.83946,1.70016 -0.83946,2.43168 v 24.79909 c 0,0.74489 0.28141,1.55664 0.86509,2.13378 0.58367,0.57733 1.40433,0.85558 2.15753,0.85558 h 0.79952 c 0.74163,0 1.51684,-0.29839 2.09049,-0.8356 0.60849,-0.55413 0.97896,-1.36943 0.97894,-2.15376 v -15.44104 c 0,-1.63076 0.41359,-2.60905 1.21112,-3.39794 0.80165,-0.79278 1.7756,-1.19628 3.42483,-1.19628 h 2.90332 c 0.38143,0 0.89913,-0.10495 1.31956,-0.25981 0.4511,-0.16587 0.93035,-0.38048 1.25647,-0.70308 0.6033,-0.59646 0.85966,-1.11573 0.85966,-1.78851 0,-0.27944 0.007,-0.77874 0.005,-1.04429 -0.007,-0.7449 -0.28144,-1.55698 -0.86509,-2.1343 -0.32693,-0.32327 -0.78777,-0.54365 -1.25647,-0.70291 -0.46869,-0.1591 -0.94054,-0.24914 -1.32005,-0.24914 h -3.55154 c -1.77997,0 -2.88981,0.49304 -4.15731,1.66969 -0.003,-0.0169 -0.003,-0.0187 -0.005,-0.0356 -0.0794,-0.45597 -0.24232,-1.32982 -0.76156,-1.84266 -0.65089,-0.643 -1.55546,-0.81683 -2.55975,-0.81124 z m 27.40373,0.74438 c -2.45887,0 -4.72034,0.55566 -6.65498,1.70625 0.0104,-0.0169 -4.3e-4,0 -0.0255,0.0169 a 0.35465546,0.3507527 0 0 0 -0.0171,0.0169 c -1.87479,1.14399 -3.36503,2.7695 -4.41413,4.76772 -1.03956,1.9801 -1.64965,4.24082 -1.83368,6.71582 a 0.35465546,0.3507527 0 0 0 0,0.0254 c 0,0 0,0.0169 0,0.0169 -0.0382,0.5814 -0.0459,1.40109 -0.0459,2.09436 0,0.69326 0.007,1.51668 0.0459,2.09824 -4e-5,0.0169 -2e-5,0.0169 0,0.0169 2e-4,0 -1.8e-4,0.0169 0,0.0169 a 0.35465546,0.3507527 0 0 0 0,0.0169 c 0.29351,3.73713 1.53133,6.95566 3.75411,9.42389 a 0.35465546,0.3507527 0 0 0 0.0104,0.0169 c 2.27923,2.49142 5.50197,3.76591 9.17972,3.76591 1.7584,0 3.38846,-0.24779 4.88686,-0.75471 a 0.35465546,0.3507527 0 0 0 0.0171,0 c 2.40682,-0.91989 4.61392,-2.14309 6.21132,-4.31039 a 0.35465546,0.3507527 0 0 0 0,-5.1e-4 0.35465546,0.3507527 0 0 0 0,-6.8e-4 0.35465546,0.3507527 0 0 0 0,-3.4e-4 0.35465546,0.3507527 0 0 0 0,-5.1e-4 0.35465546,0.3507527 0 0 0 0,-5e-4 0.35465546,0.3507527 0 0 0 0,-5.1e-4 0.35465546,0.3507527 0 0 0 0,-3.4e-4 0.35465546,0.3507527 0 0 0 0,-6.8e-4 0.35465546,0.3507527 0 0 0 0,-5e-4 0.35465546,0.3507527 0 0 0 0,-3.4e-4 0.35465546,0.3507527 0 0 0 0,-5.1e-4 c 0.56191,-0.78465 1.15,-1.42613 1.15,-2.69351 0,-0.84152 -0.34285,-1.75668 -1.01543,-2.31895 -0.51688,-0.43227 -1.19887,-0.90195 -2.05055,-0.90195 -0.8796,0 -1.68856,0.0406 -2.71947,0.99894 a 0.35465546,0.3507527 0 0 0 -0.008,0.0169 c -1.15066,1.14179 -2.25706,2.30778 -3.66785,2.83721 -0.89736,0.33225 -1.85935,0.54026 -2.78156,0.48898 -1.08914,-0.0609 -2.22017,-0.3243 -3.09014,-0.89688 -0.92481,-0.60898 -1.52064,-1.32391 -2.09592,-2.55168 -0.22816,-0.48694 -0.37472,-0.8808 -0.43426,-1.17191 -0.0595,-0.29112 -0.0305,-0.45546 0.0271,-0.55532 0.0575,-0.0999 0.1708,-0.19126 0.43772,-0.26472 0.26689,-0.0728 0.66735,-0.11171 1.19485,-0.11171 h 13.91178 c 0.71256,0 1.50571,-0.27791 2.08655,-0.82003 0.60941,-0.55498 0.97944,-1.37603 0.97944,-2.16052 v -0.74253 c 0,-2.85412 -0.48078,-5.42543 -1.51968,-7.6474 h -0.005 c -1.00494,-2.21418 -2.53173,-4.01843 -4.50235,-5.25144 -1.99345,-1.24724 -4.37575,-1.83878 -7.00937,-1.83878 z m -5e-4,6.66268 h 5e-4 c 1.37695,0 2.39725,0.30145 3.27004,0.8769 a 0.35465546,0.3507527 0 0 0 0.005,0 c 0.0297,0.0187 0.0301,0.0203 0.0171,0.0169 a 0.35465546,0.3507527 0 0 0 0.0104,0.0169 c 0.91955,0.58105 1.57471,1.31764 2.07424,2.35771 0.1736,0.36135 0.277,0.79854 0.35095,1.27431 a 0.35465546,0.3507527 0 0 0 0.003,0.0389 c 0.007,0.0254 -0.002,0.24949 -0.10201,0.40402 -0.10014,0.15402 -0.23427,0.2686 -0.53086,0.2686 H 350.0855 c -0.43194,0 -0.63191,-0.29738 -0.58707,-0.66195 0.0691,-0.49591 0.16309,-0.95205 0.32927,-1.32458 a 0.35465546,0.3507527 0 0 0 0.0104,-0.0169 c 0.50275,-1.04176 1.15827,-1.77718 2.04514,-2.35348 a 0.35465546,0.3507527 0 0 0 0.031,-0.0254 c 0.86861,-0.56734 1.88283,-0.86624 3.24985,-0.86624 z m 69.97029,-6.66268 c -2.45884,0 -4.72033,0.55566 -6.65496,1.70625 0.0104,-0.0169 -4.2e-4,0 -0.0255,0.0169 a 0.35465546,0.3507527 0 0 0 -0.0154,0.0169 c -1.8748,1.14399 -3.36454,2.7695 -4.41365,4.76772 -1.03955,1.9801 -1.65012,4.24082 -1.83416,6.71582 a 0.35465546,0.3507527 0 0 0 0,0.0254 c 0,0 0,0.0169 0,0.0169 -0.0382,0.5814 -0.0458,1.40109 -0.0458,2.09436 0,0.69326 0.007,1.51668 0.0458,2.09824 -3e-5,0.0169 -3e-5,0.0169 0,0.0169 2.1e-4,0 -1.9e-4,0.0169 0,0.0169 a 0.35465546,0.3507527 0 0 0 0,0.0169 c 0.2935,3.73713 1.53134,6.95566 3.7541,9.42389 a 0.35465546,0.3507527 0 0 0 0.0104,0.0169 c 2.27923,2.49142 5.50147,3.76591 9.17923,3.76591 1.7584,0 3.38849,-0.24779 4.88686,-0.75471 a 0.35465546,0.3507527 0 0 0 0.0171,0 c 2.40682,-0.91989 4.61391,-2.14309 6.21132,-4.31039 a 0.35465546,0.3507527 0 0 0 0,-5.1e-4 0.35465546,0.3507527 0 0 0 0,-6.8e-4 0.35465546,0.3507527 0 0 0 0,-3.4e-4 0.35465546,0.3507527 0 0 0 0,-5.1e-4 0.35465546,0.3507527 0 0 0 0,-5e-4 0.35465546,0.3507527 0 0 0 0,-5.1e-4 0.35465546,0.3507527 0 0 0 0,-3.4e-4 0.35465546,0.3507527 0 0 0 0,-6.8e-4 0.35465546,0.3507527 0 0 0 0,-5e-4 0.35465546,0.3507527 0 0 0 0,-3.4e-4 0.35465546,0.3507527 0 0 0 0,-5.1e-4 c 0.56192,-0.78465 1.15049,-1.42613 1.15049,-2.69351 0,-0.84152 -0.34334,-1.75668 -1.01592,-2.31895 -0.51689,-0.43227 -1.19887,-0.90195 -2.05056,-0.90195 -0.87958,0 -1.68857,0.0406 -2.71946,0.99894 a 0.35465546,0.3507527 0 0 0 -0.008,0.0169 c -1.15066,1.14179 -2.25755,2.30778 -3.66834,2.83721 -0.89736,0.33225 -1.85888,0.54026 -2.78109,0.48898 -1.08911,-0.0609 -2.22065,-0.3243 -3.09061,-0.89688 -0.92481,-0.60898 -1.52067,-1.32391 -2.09592,-2.55168 -0.22816,-0.48694 -0.37423,-0.8808 -0.43377,-1.17191 -0.0595,-0.29112 -0.031,-0.45546 0.0265,-0.55532 0.0575,-0.0999 0.17127,-0.19126 0.4382,-0.26472 0.2669,-0.0728 0.66687,-0.11171 1.19436,-0.11171 h 13.91178 c 0.71256,0 1.50572,-0.27791 2.08654,-0.82003 0.60942,-0.55498 0.97945,-1.37603 0.97945,-2.16052 v -0.74253 c 0,-2.85412 -0.48077,-5.42543 -1.51968,-7.6474 h -0.005 c -1.00495,-2.21418 -2.53225,-4.01843 -4.50287,-5.25144 -1.99343,-1.24724 -4.37573,-1.83878 -7.00938,-1.83878 z m 0,6.66268 c 1.37697,0 2.39778,0.30145 3.27056,0.8769 a 0.35465546,0.3507527 0 0 0 0.005,0 c 0.0297,0.0187 0.0302,0.0203 0.0171,0.0169 a 0.35465546,0.3507527 0 0 0 0.0104,0.0169 c 0.91954,0.58105 1.57518,1.31764 2.07471,2.35771 0.17361,0.36135 0.27651,0.79854 0.35048,1.27431 a 0.35465546,0.3507527 0 0 0 0.003,0.0389 c 0.007,0.0254 -0.002,0.24949 -0.10201,0.40402 -0.10014,0.15402 -0.23429,0.2686 -0.53087,0.2686 h -10.17789 c -0.43195,0 -0.63191,-0.29738 -0.58708,-0.66195 0.0691,-0.49591 0.16308,-0.95205 0.32928,-1.32458 a 0.35465546,0.3507527 0 0 0 0.0104,-0.0169 c 0.50275,-1.04176 1.15776,-1.77718 2.04465,-2.35348 a 0.35465546,0.3507527 0 0 0 0.0311,-0.0254 c 0.86859,-0.56734 1.88332,-0.86624 3.25034,-0.86624 z" /></g><path
       fill="#e95f28"
       d="m 560.82322,891.11258 -5.6219,0.99144 -2.89636,-5.2642 c -0.31933,-0.5805 -0.97535,-0.89117 -1.62394,-0.77731 -0.6523,0.11511 -1.15978,0.6325 -1.26128,1.28603 l -0.92212,5.93755 -5.62191,0.99143 c -0.6622,0.11637 -1.1734,0.64985 -1.26375,1.31699 -0.0903,0.66715 0.26118,1.31573 0.87014,1.60537 l 5.03767,2.39137 -0.92583,5.95609 c -0.10274,0.66345 0.23396,1.31699 0.833,1.62022 0.22157,0.11143 0.45921,0.16468 0.69563,0.16468 0.40476,0 0.80455,-0.15838 1.10285,-0.46042 l 4.34701,-4.40766 5.5922,2.65497 c 0.6065,0.28716 1.32935,0.15225 1.7898,-0.33668 0.46046,-0.48892 0.55203,-1.21794 0.22897,-1.80589 l -2.90623,-5.28279 3.91749,-3.97074 c 0.47285,-0.47901 0.58052,-1.20929 0.26861,-1.80589 -0.31437,-0.59661 -0.98155,-0.91966 -1.64003,-0.80455 z m 5.73825,0 5.6219,0.99144 2.89637,-5.2642 c 0.31931,-0.5805 0.97534,-0.89117 1.62394,-0.77731 0.65106,0.11511 1.15853,0.6325 1.26004,1.28603 l 0.92213,5.93755 5.62189,0.99143 c 0.66345,0.11637 1.17465,0.6486 1.26376,1.31576 0.0891,0.66715 -0.26119,1.31572 -0.87015,1.60536 l -5.03768,2.39136 0.92584,5.95609 c 0.10275,0.66345 -0.23396,1.31698 -0.833,1.62024 -0.22156,0.1114 -0.45922,0.1647 -0.69562,0.1647 -0.40476,0 -0.80455,-0.15838 -1.10284,-0.46048 l -4.34702,-4.40766 -5.5922,2.655 c -0.60651,0.28716 -1.32935,0.15223 -1.7898,-0.3367 -0.46047,-0.48891 -0.55203,-1.21796 -0.229,-1.80589 l 2.90628,-5.28155 -3.91751,-3.97073 c -0.47284,-0.47901 -0.58051,-1.20929 -0.26858,-1.80589 0.31563,-0.59661 0.98277,-0.91966 1.64126,-0.80454 z"
       id="path6-32-7"
       style="fill:url(#linearGradient33);fill-opacity:1;stroke:#ffffff;stroke-width:1.81447;stroke-miterlimit:4;stroke-dasharray:none;stroke-opacity:1" /></g><style
     type="text/css"
     id="style1941">
	.st0{fill:none;stroke:#000000;stroke-width:2;stroke-linecap:round;stroke-linejoin:round;stroke-miterlimit:10;}
</style><style
     type="text/css"
     id="style1941-0">
	.st0{fill:none;stroke:#000000;stroke-width:2;stroke-linecap:round;stroke-linejoin:round;stroke-miterlimit:10;}
</style><style
     type="text/css"
     id="style1941-7">
	.st0{fill:none;stroke:#000000;stroke-width:2;stroke-linecap:round;stroke-linejoin:round;stroke-miterlimit:10;}
</style><style
     type="text/css"
     id="style22485">
	.st0{fill:none;stroke:#6C3DB7;stroke-width:4;stroke-linecap:round;stroke-linejoin:round;stroke-miterlimit:10;}
	.st1{fill:none;stroke:#1F992A;stroke-width:4;stroke-linecap:round;stroke-linejoin:round;stroke-miterlimit:10;}
	.st2{fill:none;stroke:#6A83BA;stroke-width:4;stroke-linecap:round;stroke-linejoin:round;stroke-miterlimit:10;}
	.st3{fill:#8A8AFF;stroke:#8A8AFF;stroke-width:2;stroke-linecap:round;stroke-linejoin:round;stroke-miterlimit:10;}
	.st4{fill:#6C3DB7;stroke:#6C3DB7;stroke-width:2;stroke-linecap:round;stroke-linejoin:round;stroke-miterlimit:10;}
	.st5{fill:#A576FF;stroke:#A576FF;stroke-width:2;stroke-linecap:round;stroke-linejoin:round;stroke-miterlimit:10;}
	.st6{fill:#F2BB41;stroke:#F2BB41;stroke-width:2;stroke-linecap:round;stroke-linejoin:round;stroke-miterlimit:10;}
	.st7{fill:#E08838;stroke:#E08838;stroke-width:2;stroke-linecap:round;stroke-linejoin:round;stroke-miterlimit:10;}
	.st8{fill:#1F992A;stroke:#1F992A;stroke-width:2;stroke-linecap:round;stroke-linejoin:round;stroke-miterlimit:10;}
	.st9{fill:#5EC11E;stroke:#5EC11E;stroke-width:2;stroke-linecap:round;stroke-linejoin:round;stroke-miterlimit:10;}
	.st10{fill:#E3FAFF;stroke:#E3FAFF;stroke-width:2;stroke-linecap:round;stroke-linejoin:round;stroke-miterlimit:10;}
	.st11{fill:#FF5093;stroke:#FF5093;stroke-width:2;stroke-linecap:round;stroke-linejoin:round;stroke-miterlimit:10;}
	.st12{fill:#B7257F;stroke:#B7257F;stroke-width:2;stroke-linecap:round;stroke-linejoin:round;stroke-miterlimit:10;}
	.st13{fill:#5189E5;stroke:#5189E5;stroke-width:2;stroke-linecap:round;stroke-linejoin:round;stroke-miterlimit:10;}
	.st14{fill:#6EBAFF;stroke:#6EBAFF;stroke-width:2;stroke-linecap:round;stroke-linejoin:round;stroke-miterlimit:10;}
	.st15{fill:#EDD977;stroke:#EDD977;stroke-width:2;stroke-linecap:round;stroke-linejoin:round;stroke-miterlimit:10;}
	.st16{fill:#8C43FF;stroke:#8C43FF;stroke-width:2;stroke-linecap:round;stroke-linejoin:round;stroke-miterlimit:10;}
	.st17{fill:#5252BA;stroke:#5252BA;stroke-width:2;stroke-linecap:round;stroke-linejoin:round;stroke-miterlimit:10;}
	.st18{fill:none;stroke:#E3FAFF;stroke-width:4;stroke-linecap:round;stroke-linejoin:round;stroke-miterlimit:10;}
	.st19{fill:#354C75;stroke:#354C75;stroke-width:2;stroke-linecap:round;stroke-linejoin:round;stroke-miterlimit:10;}
</style><style
     type="text/css"
     id="style23106">
	.st0{fill:none;stroke:#000000;stroke-width:2;stroke-linecap:round;stroke-linejoin:round;stroke-miterlimit:10;}
	.st1{fill:none;stroke:#000000;stroke-width:2;stroke-linejoin:round;stroke-miterlimit:10;}
</style><style
     type="text/css"
     id="style1941-1">
	.st0{fill:none;stroke:#000000;stroke-width:2;stroke-linecap:round;stroke-linejoin:round;stroke-miterlimit:10;}
</style><style
     type="text/css"
     id="style1941-0-8">
	.st0{fill:none;stroke:#000000;stroke-width:2;stroke-linecap:round;stroke-linejoin:round;stroke-miterlimit:10;}
</style><style
     type="text/css"
     id="style1941-7-7">
	.st0{fill:none;stroke:#000000;stroke-width:2;stroke-linecap:round;stroke-linejoin:round;stroke-miterlimit:10;}
</style><style
     type="text/css"
     id="style22485-9">
	.st0{fill:none;stroke:#6C3DB7;stroke-width:4;stroke-linecap:round;stroke-linejoin:round;stroke-miterlimit:10;}
	.st1{fill:none;stroke:#1F992A;stroke-width:4;stroke-linecap:round;stroke-linejoin:round;stroke-miterlimit:10;}
	.st2{fill:none;stroke:#6A83BA;stroke-width:4;stroke-linecap:round;stroke-linejoin:round;stroke-miterlimit:10;}
	.st3{fill:#8A8AFF;stroke:#8A8AFF;stroke-width:2;stroke-linecap:round;stroke-linejoin:round;stroke-miterlimit:10;}
	.st4{fill:#6C3DB7;stroke:#6C3DB7;stroke-width:2;stroke-linecap:round;stroke-linejoin:round;stroke-miterlimit:10;}
	.st5{fill:#A576FF;stroke:#A576FF;stroke-width:2;stroke-linecap:round;stroke-linejoin:round;stroke-miterlimit:10;}
	.st6{fill:#F2BB41;stroke:#F2BB41;stroke-width:2;stroke-linecap:round;stroke-linejoin:round;stroke-miterlimit:10;}
	.st7{fill:#E08838;stroke:#E08838;stroke-width:2;stroke-linecap:round;stroke-linejoin:round;stroke-miterlimit:10;}
	.st8{fill:#1F992A;stroke:#1F992A;stroke-width:2;stroke-linecap:round;stroke-linejoin:round;stroke-miterlimit:10;}
	.st9{fill:#5EC11E;stroke:#5EC11E;stroke-width:2;stroke-linecap:round;stroke-linejoin:round;stroke-miterlimit:10;}
	.st10{fill:#E3FAFF;stroke:#E3FAFF;stroke-width:2;stroke-linecap:round;stroke-linejoin:round;stroke-miterlimit:10;}
	.st11{fill:#FF5093;stroke:#FF5093;stroke-width:2;stroke-linecap:round;stroke-linejoin:round;stroke-miterlimit:10;}
	.st12{fill:#B7257F;stroke:#B7257F;stroke-width:2;stroke-linecap:round;stroke-linejoin:round;stroke-miterlimit:10;}
	.st13{fill:#5189E5;stroke:#5189E5;stroke-width:2;stroke-linecap:round;stroke-linejoin:round;stroke-miterlimit:10;}
	.st14{fill:#6EBAFF;stroke:#6EBAFF;stroke-width:2;stroke-linecap:round;stroke-linejoin:round;stroke-miterlimit:10;}
	.st15{fill:#EDD977;stroke:#EDD977;stroke-width:2;stroke-linecap:round;stroke-linejoin:round;stroke-miterlimit:10;}
	.st16{fill:#8C43FF;stroke:#8C43FF;stroke-width:2;stroke-linecap:round;stroke-linejoin:round;stroke-miterlimit:10;}
	.st17{fill:#5252BA;stroke:#5252BA;stroke-width:2;stroke-linecap:round;stroke-linejoin:round;stroke-miterlimit:10;}
	.st18{fill:none;stroke:#E3FAFF;stroke-width:4;stroke-linecap:round;stroke-linejoin:round;stroke-miterlimit:10;}
	.st19{fill:#354C75;stroke:#354C75;stroke-width:2;stroke-linecap:round;stroke-linejoin:round;stroke-miterlimit:10;}
</style><style
     type="text/css"
     id="style23106-2">
	.st0{fill:none;stroke:#000000;stroke-width:2;stroke-linecap:round;stroke-linejoin:round;stroke-miterlimit:10;}
	.st1{fill:none;stroke:#000000;stroke-width:2;stroke-linejoin:round;stroke-miterlimit:10;}
</style><style
     type="text/css"
     id="style4736">
<![CDATA[
	.st0{fill:#D1D1D1;}
	.st1{fill:#454545;}
]]>
</style><style
     type="text/css"
     id="style1">
	.st0{fill:none;stroke:#000000;stroke-width:2;stroke-linecap:round;stroke-linejoin:round;stroke-miterlimit:10;}
</style><style
     type="text/css"
     id="style1-4">
	.linesandangles_een{fill:#111918;}
</style><style
     type="text/css"
     id="style1-2">
	.st0{fill:#000000;}
</style><style
     type="text/css"
     id="style1-5">
	.st0{fill:#000000;}
</style><style
     type="text/css"
     id="style1-1">
	.st0{fill:#000000;}
</style><style
     type="text/css"
     id="style1941-4">
	.st0{fill:none;stroke:#000000;stroke-width:2;stroke-linecap:round;stroke-linejoin:round;stroke-miterlimit:10;}
</style><style
     type="text/css"
     id="style1941-0-5">
	.st0{fill:none;stroke:#000000;stroke-width:2;stroke-linecap:round;stroke-linejoin:round;stroke-miterlimit:10;}
</style><style
     type="text/css"
     id="style1941-7-0">
	.st0{fill:none;stroke:#000000;stroke-width:2;stroke-linecap:round;stroke-linejoin:round;stroke-miterlimit:10;}
</style><style
     type="text/css"
     id="style22485-3">
	.st0{fill:none;stroke:#6C3DB7;stroke-width:4;stroke-linecap:round;stroke-linejoin:round;stroke-miterlimit:10;}
	.st1{fill:none;stroke:#1F992A;stroke-width:4;stroke-linecap:round;stroke-linejoin:round;stroke-miterlimit:10;}
	.st2{fill:none;stroke:#6A83BA;stroke-width:4;stroke-linecap:round;stroke-linejoin:round;stroke-miterlimit:10;}
	.st3{fill:#8A8AFF;stroke:#8A8AFF;stroke-width:2;stroke-linecap:round;stroke-linejoin:round;stroke-miterlimit:10;}
	.st4{fill:#6C3DB7;stroke:#6C3DB7;stroke-width:2;stroke-linecap:round;stroke-linejoin:round;stroke-miterlimit:10;}
	.st5{fill:#A576FF;stroke:#A576FF;stroke-width:2;stroke-linecap:round;stroke-linejoin:round;stroke-miterlimit:10;}
	.st6{fill:#F2BB41;stroke:#F2BB41;stroke-width:2;stroke-linecap:round;stroke-linejoin:round;stroke-miterlimit:10;}
	.st7{fill:#E08838;stroke:#E08838;stroke-width:2;stroke-linecap:round;stroke-linejoin:round;stroke-miterlimit:10;}
	.st8{fill:#1F992A;stroke:#1F992A;stroke-width:2;stroke-linecap:round;stroke-linejoin:round;stroke-miterlimit:10;}
	.st9{fill:#5EC11E;stroke:#5EC11E;stroke-width:2;stroke-linecap:round;stroke-linejoin:round;stroke-miterlimit:10;}
	.st10{fill:#E3FAFF;stroke:#E3FAFF;stroke-width:2;stroke-linecap:round;stroke-linejoin:round;stroke-miterlimit:10;}
	.st11{fill:#FF5093;stroke:#FF5093;stroke-width:2;stroke-linecap:round;stroke-linejoin:round;stroke-miterlimit:10;}
	.st12{fill:#B7257F;stroke:#B7257F;stroke-width:2;stroke-linecap:round;stroke-linejoin:round;stroke-miterlimit:10;}
	.st13{fill:#5189E5;stroke:#5189E5;stroke-width:2;stroke-linecap:round;stroke-linejoin:round;stroke-miterlimit:10;}
	.st14{fill:#6EBAFF;stroke:#6EBAFF;stroke-width:2;stroke-linecap:round;stroke-linejoin:round;stroke-miterlimit:10;}
	.st15{fill:#EDD977;stroke:#EDD977;stroke-width:2;stroke-linecap:round;stroke-linejoin:round;stroke-miterlimit:10;}
	.st16{fill:#8C43FF;stroke:#8C43FF;stroke-width:2;stroke-linecap:round;stroke-linejoin:round;stroke-miterlimit:10;}
	.st17{fill:#5252BA;stroke:#5252BA;stroke-width:2;stroke-linecap:round;stroke-linejoin:round;stroke-miterlimit:10;}
	.st18{fill:none;stroke:#E3FAFF;stroke-width:4;stroke-linecap:round;stroke-linejoin:round;stroke-miterlimit:10;}
	.st19{fill:#354C75;stroke:#354C75;stroke-width:2;stroke-linecap:round;stroke-linejoin:round;stroke-miterlimit:10;}
</style><style
     type="text/css"
     id="style23106-6">
	.st0{fill:none;stroke:#000000;stroke-width:2;stroke-linecap:round;stroke-linejoin:round;stroke-miterlimit:10;}
	.st1{fill:none;stroke:#000000;stroke-width:2;stroke-linejoin:round;stroke-miterlimit:10;}
</style><style
     type="text/css"
     id="style1941-1-1">
	.st0{fill:none;stroke:#000000;stroke-width:2;stroke-linecap:round;stroke-linejoin:round;stroke-miterlimit:10;}
</style><style
     type="text/css"
     id="style1941-0-8-0">
	.st0{fill:none;stroke:#000000;stroke-width:2;stroke-linecap:round;stroke-linejoin:round;stroke-miterlimit:10;}
</style><style
     type="text/css"
     id="style1941-7-7-6">
	.st0{fill:none;stroke:#000000;stroke-width:2;stroke-linecap:round;stroke-linejoin:round;stroke-miterlimit:10;}
</style><style
     type="text/css"
     id="style22485-9-3">
	.st0{fill:none;stroke:#6C3DB7;stroke-width:4;stroke-linecap:round;stroke-linejoin:round;stroke-miterlimit:10;}
	.st1{fill:none;stroke:#1F992A;stroke-width:4;stroke-linecap:round;stroke-linejoin:round;stroke-miterlimit:10;}
	.st2{fill:none;stroke:#6A83BA;stroke-width:4;stroke-linecap:round;stroke-linejoin:round;stroke-miterlimit:10;}
	.st3{fill:#8A8AFF;stroke:#8A8AFF;stroke-width:2;stroke-linecap:round;stroke-linejoin:round;stroke-miterlimit:10;}
	.st4{fill:#6C3DB7;stroke:#6C3DB7;stroke-width:2;stroke-linecap:round;stroke-linejoin:round;stroke-miterlimit:10;}
	.st5{fill:#A576FF;stroke:#A576FF;stroke-width:2;stroke-linecap:round;stroke-linejoin:round;stroke-miterlimit:10;}
	.st6{fill:#F2BB41;stroke:#F2BB41;stroke-width:2;stroke-linecap:round;stroke-linejoin:round;stroke-miterlimit:10;}
	.st7{fill:#E08838;stroke:#E08838;stroke-width:2;stroke-linecap:round;stroke-linejoin:round;stroke-miterlimit:10;}
	.st8{fill:#1F992A;stroke:#1F992A;stroke-width:2;stroke-linecap:round;stroke-linejoin:round;stroke-miterlimit:10;}
	.st9{fill:#5EC11E;stroke:#5EC11E;stroke-width:2;stroke-linecap:round;stroke-linejoin:round;stroke-miterlimit:10;}
	.st10{fill:#E3FAFF;stroke:#E3FAFF;stroke-width:2;stroke-linecap:round;stroke-linejoin:round;stroke-miterlimit:10;}
	.st11{fill:#FF5093;stroke:#FF5093;stroke-width:2;stroke-linecap:round;stroke-linejoin:round;stroke-miterlimit:10;}
	.st12{fill:#B7257F;stroke:#B7257F;stroke-width:2;stroke-linecap:round;stroke-linejoin:round;stroke-miterlimit:10;}
	.st13{fill:#5189E5;stroke:#5189E5;stroke-width:2;stroke-linecap:round;stroke-linejoin:round;stroke-miterlimit:10;}
	.st14{fill:#6EBAFF;stroke:#6EBAFF;stroke-width:2;stroke-linecap:round;stroke-linejoin:round;stroke-miterlimit:10;}
	.st15{fill:#EDD977;stroke:#EDD977;stroke-width:2;stroke-linecap:round;stroke-linejoin:round;stroke-miterlimit:10;}
	.st16{fill:#8C43FF;stroke:#8C43FF;stroke-width:2;stroke-linecap:round;stroke-linejoin:round;stroke-miterlimit:10;}
	.st17{fill:#5252BA;stroke:#5252BA;stroke-width:2;stroke-linecap:round;stroke-linejoin:round;stroke-miterlimit:10;}
	.st18{fill:none;stroke:#E3FAFF;stroke-width:4;stroke-linecap:round;stroke-linejoin:round;stroke-miterlimit:10;}
	.st19{fill:#354C75;stroke:#354C75;stroke-width:2;stroke-linecap:round;stroke-linejoin:round;stroke-miterlimit:10;}
</style><style
     type="text/css"
     id="style23106-2-2">
	.st0{fill:none;stroke:#000000;stroke-width:2;stroke-linecap:round;stroke-linejoin:round;stroke-miterlimit:10;}
	.st1{fill:none;stroke:#000000;stroke-width:2;stroke-linejoin:round;stroke-miterlimit:10;}
</style><style
     type="text/css"
     id="style4736-0">
<![CDATA[
	.st0{fill:#D1D1D1;}
	.st1{fill:#454545;}
]]>
</style><style
     type="text/css"
     id="style1-6">
	.st0{fill:none;stroke:#000000;stroke-width:2;stroke-linecap:round;stroke-linejoin:round;stroke-miterlimit:10;}
</style><style
     type="text/css"
     id="style1-4-1">
	.linesandangles_een{fill:#111918;}
</style><style
     type="text/css"
     id="style1-2-5">
	.st0{fill:#000000;}
</style><style
     type="text/css"
     id="style1-5-5">
	.st0{fill:#000000;}
</style><style
     type="text/css"
     id="style1-1-4">
	.st0{fill:#000000;}
</style></svg>
